HIERARCHY
ROOT Hips
{
  OFFSET -33.7502 12.8543 3.70592
  CHANNELS 6 Xposition Yposition Zposition Zrotation Xrotation Yrotation
  JOINT Spine
  {
    OFFSET 0 9.9235 -1.2273
    CHANNELS 6 Xposition Yposition Zposition Zrotation Xrotation Yrotation
    JOINT Spine1
    {
      OFFSET -0.0001 11.6454 -1.4223
      CHANNELS 6 Xposition Yposition Zposition Zrotation Xrotation Yrotation
      JOINT Spine2
      {
        OFFSET 0.0001 13.3602 -1.6265
        CHANNELS 6 Xposition Yposition Zposition Zrotation Xrotation Yrotation
        JOINT Neck
        {
          OFFSET 0 15.0325 0.7929
          CHANNELS 6 Xposition Yposition Zposition Zrotation Xrotation Yrotation
          JOINT Head
          {
            OFFSET 0 10.3218 3.1424
            CHANNELS 6 Xposition Yposition Zposition Zrotation Xrotation Yrotation
            End Site
            {
              OFFSET 0 0 0
            }
          }
        }
        JOINT LeftShoulder
        {
          OFFSET 6.1058 9.1104 0.7056
          CHANNELS 6 Xposition Yposition Zposition Zrotation Xrotation Yrotation
          JOINT LeftArm
          {
            OFFSET 12.655 -0.2659 -2.6009
            CHANNELS 6 Xposition Yposition Zposition Zrotation Xrotation Yrotation
            JOINT LeftForeArm
            {
              OFFSET 27.4047 0 0
              CHANNELS 6 Xposition Yposition Zposition Zrotation Xrotation Yrotation
              JOINT LeftHand
              {
                OFFSET 27.6145 0 0
                CHANNELS 6 Xposition Yposition Zposition Zrotation Xrotation Yrotation
                JOINT LeftHandMiddle1
                {
                  OFFSET 12.7755 0 0
                  CHANNELS 6 Xposition Yposition Zposition Zrotation Xrotation Yrotation
                  JOINT LeftHandMiddle2
                  {
                    OFFSET 3.614 0 0
                    CHANNELS 6 Xposition Yposition Zposition Zrotation Xrotation Yrotation
                    JOINT LeftHandMiddle3
                    {
                      OFFSET 3.4598 0 0
                      CHANNELS 6 Xposition Yposition Zposition Zrotation Xrotation Yrotation
                      End Site
                      {
                        OFFSET 3.6802 0 0
                      }
                    }
                  }
                }
                JOINT LeftHandThumb1
                {
                  OFFSET 3.7888 -2.167 3.0031
                  CHANNELS 6 Xposition Yposition Zposition Zrotation Xrotation Yrotation
                  JOINT LeftHandThumb2
                  {
                    OFFSET 3.6754 -2.122 2.122
                    CHANNELS 6 Xposition Yposition Zposition Zrotation Xrotation Yrotation
                    JOINT LeftHandThumb3
                    {
                      OFFSET 3.3944 -1.9597 1.9598
                      CHANNELS 6 Xposition Yposition Zposition Zrotation Xrotation Yrotation
                      End Site
                      {
                        OFFSET 2.6794 -1.5469 1.5469
                      }
                    }
                  }
                }
                JOINT LeftHandIndex1
                {
                  OFFSET 12.2666 -0.2317 2.8221
                  CHANNELS 6 Xposition Yposition Zposition Zrotation Xrotation Yrotation
                  JOINT LeftHandIndex2
                  {
                    OFFSET 3.892 0 0
                    CHANNELS 6 Xposition Yposition Zposition Zrotation Xrotation Yrotation
                    JOINT LeftHandIndex3
                    {
                      OFFSET 3.4152 0 0
                      CHANNELS 6 Xposition Yposition Zposition Zrotation Xrotation Yrotation
                      End Site
                      {
                        OFFSET 3.078 0 0
                      }
                    }
                  }
                }
                JOINT LeftHandRing1
                {
                  OFFSET 12.147 0.0099 -2.2166
                  CHANNELS 6 Xposition Yposition Zposition Zrotation Xrotation Yrotation
                  JOINT LeftHandRing2
                  {
                    OFFSET 3.6012 0 0
                    CHANNELS 6 Xposition Yposition Zposition Zrotation Xrotation Yrotation
                    JOINT LeftHandRing3
                    {
                      OFFSET 3.3073 0 0
                      CHANNELS 6 Xposition Yposition Zposition Zrotation Xrotation Yrotation
                      End Site
                      {
                        OFFSET 3.6601 0 0
                      }
                    }
                  }
                }
                JOINT LeftHandPinky1
                {
                  OFFSET 10.9082 -0.2264 -4.7258
                  CHANNELS 6 Xposition Yposition Zposition Zrotation Xrotation Yrotation
                  JOINT LeftHandPinky2
                  {
                    OFFSET 4.1367 0 0
                    CHANNELS 6 Xposition Yposition Zposition Zrotation Xrotation Yrotation
                    JOINT LeftHandPinky3
                    {
                      OFFSET 2.5948 0 0
                      CHANNELS 6 Xposition Yposition Zposition Zrotation Xrotation Yrotation
                      End Site
                      {
                        OFFSET 2.9239 0 0
                      }
                    }
                  }
                }
              }
            }
          }
        }
        JOINT RightShoulder
        {
          OFFSET -6.1057 9.1105 0.7056
          CHANNELS 6 Xposition Yposition Zposition Zrotation Xrotation Yrotation
          JOINT RightArm
          {
            OFFSET -12.655 -0.266 -2.6009
            CHANNELS 6 Xposition Yposition Zposition Zrotation Xrotation Yrotation
            JOINT RightForeArm
            {
              OFFSET -27.4047 0 0
              CHANNELS 6 Xposition Yposition Zposition Zrotation Xrotation Yrotation
              JOINT RightHand
              {
                OFFSET -27.6145 0 0
                CHANNELS 6 Xposition Yposition Zposition Zrotation Xrotation Yrotation
                JOINT RightHandMiddle1
                {
                  OFFSET -12.7755 0 0
                  CHANNELS 6 Xposition Yposition Zposition Zrotation Xrotation Yrotation
                  JOINT RightHandMiddle2
                  {
                    OFFSET -3.614 0 0
                    CHANNELS 6 Xposition Yposition Zposition Zrotation Xrotation Yrotation
                    JOINT RightHandMiddle3
                    {
                      OFFSET -3.4598 0 0
                      CHANNELS 6 Xposition Yposition Zposition Zrotation Xrotation Yrotation
                      End Site
                      {
                        OFFSET -3.6802 0 0
                      }
                    }
                  }
                }
                JOINT RightHandThumb1
                {
                  OFFSET -3.7888 -2.167 3.0031
                  CHANNELS 6 Xposition Yposition Zposition Zrotation Xrotation Yrotation
                  JOINT RightHandThumb2
                  {
                    OFFSET -3.6754 -2.122 2.122
                    CHANNELS 6 Xposition Yposition Zposition Zrotation Xrotation Yrotation
                    JOINT RightHandThumb3
                    {
                      OFFSET -3.3944 -1.9597 1.9598
                      CHANNELS 6 Xposition Yposition Zposition Zrotation Xrotation Yrotation
                      End Site
                      {
                        OFFSET -2.6794 -1.5469 1.5469
                      }
                    }
                  }
                }
                JOINT RightHandIndex1
                {
                  OFFSET -12.2666 -0.2317 2.8221
                  CHANNELS 6 Xposition Yposition Zposition Zrotation Xrotation Yrotation
                  JOINT RightHandIndex2
                  {
                    OFFSET -3.892 0 0
                    CHANNELS 6 Xposition Yposition Zposition Zrotation Xrotation Yrotation
                    JOINT RightHandIndex3
                    {
                      OFFSET -3.4152 0 0
                      CHANNELS 6 Xposition Yposition Zposition Zrotation Xrotation Yrotation
                      End Site
                      {
                        OFFSET -3.078 0 0
                      }
                    }
                  }
                }
                JOINT RightHandRing1
                {
                  OFFSET -12.147 0.0099 -2.2166
                  CHANNELS 6 Xposition Yposition Zposition Zrotation Xrotation Yrotation
                  JOINT RightHandRing2
                  {
                    OFFSET -3.6012 0 0
                    CHANNELS 6 Xposition Yposition Zposition Zrotation Xrotation Yrotation
                    JOINT RightHandRing3
                    {
                      OFFSET -3.3073 0 0
                      CHANNELS 6 Xposition Yposition Zposition Zrotation Xrotation Yrotation
                      End Site
                      {
                        OFFSET -3.6601 0 0
                      }
                    }
                  }
                }
                JOINT RightHandPinky1
                {
                  OFFSET -10.9082 -0.2264 -4.7258
                  CHANNELS 6 Xposition Yposition Zposition Zrotation Xrotation Yrotation
                  JOINT RightHandPinky2
                  {
                    OFFSET -4.1367 0 0
                    CHANNELS 6 Xposition Yposition Zposition Zrotation Xrotation Yrotation
                    JOINT RightHandPinky3
                    {
                      OFFSET -2.5948 0 0
                      CHANNELS 6 Xposition Yposition Zposition Zrotation Xrotation Yrotation
                      End Site
                      {
                        OFFSET -2.9239 0 0
                      }
                    }
                  }
                }
              }
            }
          }
        }
      }
    }
  }
  JOINT RightUpLeg
  {
    OFFSET -9.1245 -6.6564 -0.0554
    CHANNELS 6 Xposition Yposition Zposition Zrotation Xrotation Yrotation
    JOINT RightLeg
    {
      OFFSET -0.2447 -40.5954 -0.5145
      CHANNELS 6 Xposition Yposition Zposition Zrotation Xrotation Yrotation
      JOINT RightFoot
      {
        OFFSET 0.2447 -42.0479 -2.0602
        CHANNELS 6 Xposition Yposition Zposition Zrotation Xrotation Yrotation
        JOINT RightToeBase
        {
          OFFSET -0.3734 -10.4922 12.6407
          CHANNELS 6 Xposition Yposition Zposition Zrotation Xrotation Yrotation
          End Site
          {
            OFFSET 0 0 9.9925
          }
        }
      }
    }
  }
  JOINT LeftUpLeg
  {
    OFFSET 9.1245 -6.6564 -0.0554
    CHANNELS 6 Xposition Yposition Zposition Zrotation Xrotation Yrotation
    JOINT LeftLeg
    {
      OFFSET 0.2447 -40.5954 -0.517
      CHANNELS 6 Xposition Yposition Zposition Zrotation Xrotation Yrotation
      JOINT LeftFoot
      {
        OFFSET -0.2447 -42.048 -2.0576
        CHANNELS 6 Xposition Yposition Zposition Zrotation Xrotation Yrotation
        JOINT LeftToeBase
        {
          OFFSET 0.3734 -10.4922 12.6407
          CHANNELS 6 Xposition Yposition Zposition Zrotation Xrotation Yrotation
          End Site
          {
            OFFSET 0 0 9.9925
          }
        }
      }
    }
  }
}
MOTION
Frames:	4
Frame Time:	0.0333333
-17.7808 47.2372 -41.8113 8.45713 19.3101 -13.2674 0 9.9235 -1.2273 2.00932 -1.18877 1.03759 -0.0001 11.6454 -1.4223 -0.670326 -2.31161 4.07307 0.0001 13.3602 -1.6265 -0.676436 -2.3558 4.04994 0 15.0325 0.7929 -0.597889 -3.42499 -4.00949 0 10.3218 3.1424 15.1021 -47.0138 -17.5979 6.1058 9.1104 0.7056 -10.4651 -0.674804 5.6893 12.655 -0.2659 -2.6009 -39.0226 -10.0488 -45.1897 27.4047 -1.42109e-014 0 -3.49895e-006 4.8216e-006 -14.0298 27.6145 0 0 -5.27444 2.43283 -1.25142 12.7755 0 0 0.0159907 1.91375e-006 -0.00193738 3.614 0 -1.77636e-015 -0.0159884 4.9345e-007 0.00192617 3.4598 0 3.55271e-015 -5.56597e-015 -9.93923e-015 3.18055e-015 3.7888 -2.167 3.0031 6.13176 -1.13777 3.8329 3.6754 -2.122 2.122 0.740436 4.04263 7.89749 3.3944 -1.9597 1.9598 2.53773 -0.50969 1.59813 12.2666 -0.2317 2.8221 -7.15625e-015 2.78299e-015 3.18055e-015 3.892 0 -7.10543e-015 -2.65913e-005 -2.72993e-007 2.57844e-006 3.4152 1.42109e-014 0 -3.97569e-015 2.78299e-015 -0 12.147 0.0099 -2.2166 -7.15625e-015 2.78299e-015 3.18055e-015 3.6012 -1.42109e-014 -3.55271e-015 -2.88325e-005 -6.67008e-006 3.30797e-006 3.3073 0 3.55271e-015 9.10717e-007 -1.60299e-006 -1.53845e-006 10.9082 -0.2264 -4.7258 0.509579 0.0180391 4.05428 4.1367 0 -1.77636e-015 -0.509584 0.0180292 -4.05429 2.5948 0 0 -1.98785e-015 -6.75868e-015 3.18055e-015 -6.1057 9.1105 0.7056 10.306 -0.266183 -4.19517 -12.655 -0.266 -2.6009 54.0808 -9.52847 26.4166 -27.4047 0 3.55271e-015 2.53491e-006 -1.13939e-005 39.262 -27.6145 -1.42109e-014 7.10543e-015 16.5538 20.9628 -9.50046 -12.7755 0 1.77636e-015 3.18055e-015 1.59028e-015 -0 -3.614 0 0 8.30637e-006 -5.33014e-006 6.423e-006 -3.4598 0 3.55271e-015 -6.36111e-015 9.54166e-015 -3.18055e-015 -3.7888 -2.167 3.0031 -6.57625 -1.42765 -3.76934 -3.6754 -2.122 2.122 -0.222509 4.67163 -8.61635 -3.3944 -1.9597 1.9598 -2.09532 -1.27849 0.0916675 -12.2666 -0.2317 2.8221 3.18055e-015 1.59028e-015 -0 -3.892 0 0 1.2818e-005 -6.65719e-006 1.4312e-006 -3.4152 0 -1.77636e-015 1.59028e-015 -3.18055e-015 -0 -12.147 0.0099 -2.2166 3.18055e-015 1.59028e-015 -0 -3.6012 -1.42109e-014 0 8.30637e-006 -5.33014e-006 6.423e-006 -3.3073 0 -3.55271e-015 -6.36111e-015 9.54166e-015 -3.18055e-015 -10.9082 -0.2264 -4.7258 3.18055e-015 1.59028e-015 -0 -4.1367 0 0 3.68615e-005 -4.98463e-006 -3.04335e-006 -2.5948 0 3.55271e-015 0 0 -0 -9.1245 -6.6564 -0.0554 -16.5411 3.46476 0.138199 -0.2447 -40.5954 -0.5145 -59.5617 81.5035 55.314 0.2447 -42.0479 -2.0602 1.4841 -2.97758 0.0997378 -0.3734 -10.4922 12.6407 -1.21563e-006 -7.05244e-006 -4.02771e-007 9.1245 -6.6564 -0.0554 63.7899 -34.6058 45.0221 0.2447 -40.5954 -0.517 175.332 58.1664 -167.45 -0.2447 -42.048 -2.0576 -3.33248 -7.16378 -0.0557872 0.3734 -10.4922 12.6407 -9.26289 -53.2585 -5.87442 
-17.9729 45.346 -38.445 7.76615 23.7449 -17.6371 0 9.9235 -1.2273 2.98529 -1.37524 1.45395 -0.0001 11.6454 -1.4223 1.01964 -2.67464 5.11462 0.0001 13.3602 -1.6265 1.01497 -2.73114 5.08926 1.77636e-015 15.0325 0.7929 -0.540522 -4.0686 -4.0094 0 10.3218 3.1424 14.5065 -47.9926 -17.409 6.1058 9.1104 0.7056 -10.124 -0.644884 5.63267 12.655 -0.2659 -2.6009 -37.0603 -10.4443 -47.8966 27.4047 0 3.55271e-015 3.07755e-006 3.68395e-007 -15.5589 27.6145 -1.42109e-014 -7.10543e-015 -4.63213 1.7493 -0.834129 12.7755 1.42109e-014 7.10543e-015 0.0159907 1.91375e-006 -0.00193738 3.614 0 0 -0.0159884 4.9345e-007 0.00192617 3.4598 -1.42109e-014 3.55271e-015 -7.95139e-015 1.11319e-014 -3.18055e-015 3.7888 -2.167 3.0031 6.13176 -1.13777 3.8329 3.6754 -2.122 2.122 0.740438 4.04264 7.89748 3.3944 -1.9597 1.9598 2.53772 -0.50969 1.59812 12.2666 -0.2317 2.8221 -6.36111e-015 7.95139e-015 -9.54166e-015 3.892 0 3.55271e-015 -2.65913e-005 -2.72993e-007 2.57844e-006 3.4152 -1.42109e-014 0 7.95139e-016 2.38542e-015 -6.36111e-015 12.147 0.0099 -2.2166 -6.36111e-015 7.95139e-015 -9.54166e-015 3.6012 0 0 -2.88325e-005 -6.67008e-006 3.30797e-006 3.3073 -1.42109e-014 5.32907e-015 9.10717e-007 -1.60299e-006 -1.53845e-006 10.9082 -0.2264 -4.7258 0.509579 0.0180391 4.05428 4.1367 0 1.77636e-015 -0.509584 0.0180292 -4.05429 2.5948 1.42109e-014 -1.77636e-015 -2.38542e-015 -4.77083e-015 -0 -6.1057 9.1105 0.7056 10.2559 -0.276774 -4.22726 -12.655 -0.266 -2.6009 51.7012 -11.1677 35.0159 -27.4047 0 -3.55271e-015 9.07911e-006 -9.30469e-006 35.241 -27.6145 0 0 5.44226 23.9608 2.92203 -12.7755 0 5.32907e-015 4.77083e-015 3.18055e-015 -3.18055e-015 -3.614 1.42109e-014 3.55271e-015 8.30637e-006 -5.33014e-006 6.423e-006 -3.4598 0 1.77636e-015 -1.59028e-015 2.38542e-015 3.18055e-015 -3.7888 -2.167 3.0031 -6.57625 -1.42765 -3.76934 -3.6754 -2.122 2.122 -0.222521 4.67164 -8.61637 -3.3944 -1.9597 1.9598 -2.09531 -1.27849 0.091658 -12.2666 -0.2317 2.8221 4.77083e-015 3.18055e-015 -3.18055e-015 -3.892 0 5.32907e-015 1.2818e-005 -6.65719e-006 1.4312e-006 -3.4152 0 5.32907e-015 -5.56597e-015 -7.95139e-016 3.18055e-015 -12.147 0.0099 -2.2166 4.77083e-015 3.18055e-015 -3.18055e-015 -3.6012 -1.42109e-014 1.77636e-015 8.30637e-006 -5.33014e-006 6.423e-006 -3.3073 0 -5.32907e-015 -1.59028e-015 2.38542e-015 3.18055e-015 -10.9082 -0.2264 -4.7258 4.77083e-015 3.18055e-015 -3.18055e-015 -4.1367 1.42109e-014 0 3.68615e-005 -4.98463e-006 -3.04335e-006 -2.5948 0 -3.55271e-015 -3.18055e-015 -1.59028e-015 3.18055e-015 -9.1245 -6.6564 -0.0554 -15.3333 3.52605 1.66743 -0.2447 -40.5954 -0.5145 -42.9573 76.1332 37.0594 0.2447 -42.0479 -2.0602 1.64792 -3.42029 0.107031 -0.3734 -10.4922 12.6407 1.63726e-006 1.00378e-005 -3.29986e-006 9.1245 -6.6564 -0.0554 63.3893 -33.7054 44.6238 0.2447 -40.5954 -0.517 174.859 57.8379 -166.622 -0.2447 -42.048 -2.0576 -2.08727 -5.60926 -0.0204104 0.3734 -10.4922 12.6407 -21.2282 -57.7508 -13.6023 
-18.0289 43.2032 -35.0363 7.47753 27.6553 -22.8074 -3.55271e-015 9.9235 -1.2273 3.80214 -1.32721 1.96963 -0.0001 11.6454 -1.4223 2.61132 -2.50103 6.38367 0.0001 13.3602 -1.6265 2.60461 -2.56961 6.36366 3.55271e-015 15.0325 0.7929 -0.483038 -4.67346 -3.80765 -3.55271e-015 10.3218 3.1424 13.8043 -49.2412 -16.1814 6.1058 9.1104 0.7056 -10.0839 -0.640797 5.62398 12.655 -0.2659 -2.6009 -34.2263 -11.6829 -50.5682 27.4047 0 0 -4.80186e-006 -2.82285e-006 -17.2436 27.6145 0 3.55271e-015 -4.16491 0.963281 -1.18841 12.7755 0 0 0.0159907 1.91375e-006 -0.00193738 3.614 0 0 -0.0159884 4.9345e-007 0.00192617 3.4598 0 -7.10543e-015 -9.54166e-015 1.59028e-015 -9.54166e-015 3.7888 -2.167 3.0031 6.13176 -1.13777 3.8329 3.6754 -2.122 2.122 0.740431 4.04263 7.89749 3.3944 -1.9597 1.9598 2.53773 -0.509687 1.59812 12.2666 -0.2317 2.8221 -6.36111e-015 2.38542e-015 -3.18055e-015 3.892 0 0 -2.65913e-005 -2.72993e-007 2.57844e-006 3.4152 1.42109e-014 0 1.59028e-015 -5.56597e-015 -3.18055e-015 12.147 0.0099 -2.2166 -6.36111e-015 2.38542e-015 -3.18055e-015 3.6012 0 0 -2.88325e-005 -6.67008e-006 3.30797e-006 3.3073 0 0 9.10717e-007 -1.60299e-006 -1.53845e-006 10.9082 -0.2264 -4.7258 0.509579 0.0180391 4.05428 4.1367 0 3.55271e-015 -0.509584 0.0180292 -4.05429 2.5948 0 -1.77636e-015 -1.59028e-015 2.38542e-015 -0 -6.1057 9.1105 0.7056 10.1205 -0.265082 -4.20881 -12.655 -0.266 -2.6009 52.8407 -14.0847 45.4533 -27.4047 1.42109e-014 3.55271e-015 -1.05232e-005 1.36646e-005 28.3759 -27.6145 1.42109e-014 3.55271e-015 -2.06996 26.9146 10.1116 -12.7755 0 -1.77636e-015 -2.18663e-015 2.57178e-015 3.18055e-015 -3.614 0 7.10543e-015 8.30637e-006 -5.33014e-006 6.423e-006 -3.4598 1.42109e-014 -7.10543e-015 -3.75206e-015 3.72721e-016 -6.36111e-015 -3.7888 -2.167 3.0031 -6.57625 -1.42765 -3.76934 -3.6754 -2.122 2.122 -0.222508 4.67163 -8.61635 -3.3944 -1.9597 1.9598 -2.09531 -1.2785 0.0916539 -12.2666 -0.2317 2.8221 -2.18663e-015 2.57178e-015 3.18055e-015 -3.892 0 1.77636e-015 1.2818e-005 -6.65719e-006 1.4312e-006 -3.4152 0 -5.32907e-015 3.32964e-015 -5.35476e-015 -9.54166e-015 -12.147 0.0099 -2.2166 -2.18663e-015 2.57178e-015 3.18055e-015 -3.6012 0 5.32907e-015 8.30637e-006 -5.33014e-006 6.423e-006 -3.3073 1.42109e-014 1.77636e-015 -3.75206e-015 3.72721e-016 -6.36111e-015 -10.9082 -0.2264 -4.7258 -2.18663e-015 2.57178e-015 3.18055e-015 -4.1367 1.42109e-014 -3.55271e-015 3.68615e-005 -4.98463e-006 -3.04335e-006 -2.5948 0 -3.55271e-015 -1.49089e-016 1.83876e-015 6.36111e-015 -9.1245 -6.6564 -0.0554 -16.4624 3.19966 3.5763 -0.2447 -40.5954 -0.5145 -32.7619 71.3736 25.7815 0.2447 -42.0479 -2.0602 0.831613 -3.50781 0.0957513 -0.3734 -10.4922 12.6407 -2.11808e-006 -5.95096e-006 1.06137e-006 9.1245 -6.6564 -0.0554 62.1781 -31.4197 44.2058 0.2447 -40.5954 -0.517 174.414 57.7416 -166.622 -0.2447 -42.048 -2.0576 -0.677842 -4.23571 -0.0235393 0.3734 -10.4922 12.6407 -41.6819 -34.767 -1.15883 
-18.4841 40.8251 -31.5991 7.67534 31.4806 -26.7556 0 9.9235 -1.2273 4.42954 -1.13839 2.26443 -0.0001 11.6454 -1.4223 3.88999 -2.00117 7.15485 0.0001 13.3602 -1.6265 3.87751 -2.07541 7.14585 1.77636e-015 15.0325 0.7929 -0.38619 -5.5079 -3.4887 -1.77636e-015 10.3218 3.1424 13.6764 -51.1328 -14.0048 6.1058 9.1104 0.7056 -9.76146 -0.598267 5.51978 12.655 -0.2659 -2.6009 -31.8717 -13.8379 -54.2585 27.4047 0 1.77636e-015 2.34321e-006 8.89148e-007 -17.969 27.6145 -1.42109e-014 3.55271e-015 -3.33083 0.712319 -2.59108 12.7755 0 0 0.0159907 1.91375e-006 -0.00193738 3.614 0 3.55271e-015 -0.0159884 4.9345e-007 0.00192617 3.4598 0 0 -3.18055e-015 -2.38542e-015 -0 3.7888 -2.167 3.0031 6.13176 -1.13777 3.8329 3.6754 -2.122 2.122 0.740433 4.04263 7.89748 3.3944 -1.9597 1.9598 2.53773 -0.50969 1.59813 12.2666 -0.2317 2.8221 -1.27222e-014 1.59028e-015 3.18055e-015 3.892 0 0 -2.65913e-005 -2.72993e-007 2.57844e-006 3.4152 -1.42109e-014 3.55271e-015 3.18055e-015 2.38542e-015 -0 12.147 0.0099 -2.2166 -1.27222e-014 1.59028e-015 3.18055e-015 3.6012 0 1.77636e-015 -2.88325e-005 -6.67008e-006 3.30797e-006 3.3073 1.42109e-014 0 9.10717e-007 -1.60299e-006 -1.53845e-006 10.9082 -0.2264 -4.7258 0.509579 0.0180391 4.05428 4.1367 0 0 -0.509584 0.0180292 -4.05429 2.5948 0 3.55271e-015 4.77083e-015 4.77083e-015 -3.18055e-015 -6.1057 9.1105 0.7056 10.0842 -0.218435 -4.08774 -12.655 -0.266 -2.6009 56.8106 -17.0532 56.8096 -27.4047 0 -1.06581e-014 -1.15972e-005 -3.36784e-006 19.8455 -27.6145 1.42109e-014 7.10543e-015 -8.80043 31.717 14.8123 -12.7755 1.42109e-014 1.77636e-015 -6.75868e-015 4.77083e-015 3.18055e-015 -3.614 0 -3.55271e-015 8.30637e-006 -5.33014e-006 6.423e-006 -3.4598 0 7.10543e-015 -2.78299e-015 -7.95139e-015 -6.36111e-015 -3.7888 -2.167 3.0031 -6.57625 -1.42765 -3.76934 -3.6754 -2.122 2.122 -0.222504 4.67163 -8.61635 -3.3944 -1.9597 1.9598 -2.09531 -1.27849 0.0916587 -12.2666 -0.2317 2.8221 -6.75868e-015 4.77083e-015 3.18055e-015 -3.892 -1.42109e-014 3.55271e-015 1.2818e-005 -6.65719e-006 1.4312e-006 -3.4152 1.42109e-014 -1.77636e-015 -1.98785e-015 1.19271e-015 -3.18055e-015 -12.147 0.0099 -2.2166 -6.75868e-015 4.77083e-015 3.18055e-015 -3.6012 1.42109e-014 8.88178e-015 8.30637e-006 -5.33014e-006 6.423e-006 -3.3073 0 8.88178e-015 -2.78299e-015 -7.95139e-015 -6.36111e-015 -10.9082 -0.2264 -4.7258 -6.75868e-015 4.77083e-015 3.18055e-015 -4.1367 0 3.55271e-015 3.68615e-005 -4.98463e-006 -3.04335e-006 -2.5948 -1.42109e-014 3.55271e-015 -1.98785e-015 -6.36111e-015 -3.18055e-015 -9.1245 -6.6564 -0.0554 -17.8446 3.22589 3.6226 -0.2447 -40.5954 -0.5145 -26.1783 66.883 18.5905 0.2447 -42.0479 -2.0602 -0.0399334 -3.36313 0.0793231 -0.3734 -10.4922 12.6407 -5.06597e-006 1.2953e-005 3.65384e-006 9.1245 -6.6564 -0.0554 62.3872 -28.4644 44.8858 0.2447 -40.5954 -0.517 174.12 58.1194 -167.406 -0.2447 -42.048 -2.0576 0.28098 -3.61925 -0.0439168 0.3734 -10.4922 12.6407 35.5273 59.2944 -22.9378 
